<svg width="22" height="26" viewBox="0 0 22 26" fill="none" xmlns="http://www.w3.org/2000/svg">
<path d="M4.3127 0.03125L6.09395 5.875V9.6875H7.59395V5.6875L9.3127 0.03125H7.8127L6.8752 3.875H6.78145L5.8127 0.03125H4.3127ZM11.2189 2.375C10.6174 2.375 10.1369 2.54688 9.78145 2.875C9.42598 3.19922 9.2502 3.63672 9.2502 4.1875V7.875C9.2502 8.48047 9.43379 8.98828 9.78145 9.34375C10.133 9.70312 10.5744 9.875 11.1564 9.875C11.758 9.875 12.2502 9.69141 12.5939 9.34375C12.9377 8.99609 13.0939 8.51562 13.0939 7.90625V4.21875C13.0939 3.67578 12.9143 3.25 12.5627 2.90625C12.215 2.55859 11.7697 2.375 11.2189 2.375ZM14.2189 2.5625V8.53125C14.2189 8.95703 14.3127 9.25781 14.4689 9.46875C14.6252 9.67969 14.8518 9.78125 15.1564 9.78125C15.4025 9.78125 15.6447 9.71094 15.9064 9.5625C16.1721 9.41016 16.4455 9.19531 16.6877 8.90625V9.6875H18.0002V2.5625H16.6877V7.96875C16.5627 8.12109 16.4299 8.24609 16.2814 8.34375C16.133 8.44531 16.0041 8.5 15.9064 8.5C15.7854 8.5 15.6799 8.48047 15.6252 8.40625C15.5666 8.33203 15.5627 8.19531 15.5627 8.03125V2.5625H14.2189ZM11.1564 3.625C11.3322 3.625 11.4885 3.65625 11.5939 3.75C11.7033 3.84766 11.7502 3.97266 11.7502 4.125V8.03125C11.7502 8.22266 11.6994 8.36328 11.5939 8.46875C11.4885 8.57812 11.3361 8.625 11.1564 8.625C10.9807 8.625 10.8439 8.57422 10.7502 8.46875C10.6525 8.36328 10.6252 8.22656 10.6252 8.03125V4.125C10.6252 3.97266 10.6799 3.84766 10.7814 3.75C10.883 3.65625 10.9963 3.625 11.1564 3.625ZM11.0002 11.1562C8.40645 11.1523 5.86348 11.1758 3.3752 11.2812C1.63691 11.2812 0.218946 12.6836 0.218946 14.4062C0.113477 15.7695 0.0587896 17.1367 0.0626956 18.5C0.0587896 19.8633 0.113477 21.2305 0.218946 22.5938C0.218946 24.3164 1.63691 25.7188 3.3752 25.7188C5.86348 25.8203 8.40645 25.8477 11.0002 25.8438C13.5979 25.8516 16.1408 25.8203 18.6252 25.7188C20.3635 25.7188 21.7814 24.3164 21.7814 22.5938C21.8869 21.2305 21.9416 19.8633 21.9377 18.5C21.9455 17.1367 21.8869 15.7695 21.7814 14.4062C21.7814 12.6836 20.3635 11.2812 18.6252 11.2812C16.1408 11.1758 13.5979 11.1523 11.0002 11.1562ZM1.7502 13.375H6.34395C6.42598 13.375 6.5002 13.4492 6.5002 13.5312V14.9375C6.5002 15.0195 6.42598 15.0938 6.34395 15.0938H4.9377V23.1875C4.9377 23.2695 4.89473 23.3438 4.8127 23.3438H3.3127C3.23066 23.3438 3.15645 23.2695 3.15645 23.1875V15.0938H1.7502C1.66816 15.0938 1.6252 15.0195 1.6252 14.9375V13.5312C1.6252 13.4492 1.66816 13.375 1.7502 13.375ZM11.4064 13.375H12.7502C12.8322 13.375 12.9064 13.4492 12.9064 13.5312V16.25C13.0158 16.1484 13.133 16.0664 13.2502 16C13.4768 15.875 13.7072 15.8125 13.9377 15.8125C14.4064 15.8125 14.7502 16 15.0002 16.3438C15.2385 16.6758 15.3752 17.1406 15.3752 17.75V21.7188C15.3752 22.2578 15.2619 22.6758 15.0314 22.9688C14.7932 23.2734 14.4377 23.4375 14.0002 23.4375C13.7229 23.4375 13.4768 23.3633 13.2502 23.25C13.1291 23.1875 13.0158 23.1289 12.9064 23.0312V23.1875C12.9064 23.2695 12.8322 23.3438 12.7502 23.3438H11.4064C11.3244 23.3438 11.2502 23.2695 11.2502 23.1875V13.5312C11.2502 13.4492 11.3244 13.375 11.4064 13.375ZM18.2189 15.7188C18.8674 15.7188 19.3986 15.9219 19.7502 16.3125C20.1018 16.7031 20.2814 17.2578 20.2814 17.9688V19.8125C20.2814 19.8945 20.2072 19.9375 20.1252 19.9375H17.7502V21.1562C17.7502 21.5938 17.7971 21.7656 17.8439 21.8438C17.883 21.9062 17.9494 22 18.1564 22C18.3244 22 18.4416 21.9531 18.5002 21.875C18.5275 21.832 18.5939 21.6758 18.5939 21.1562V20.6562C18.5939 20.5742 18.6682 20.5 18.7502 20.5H20.1252C20.2072 20.5 20.2814 20.5742 20.2814 20.6562V21.1875C20.2814 21.957 20.0744 22.543 19.7189 22.9375C19.3635 23.3359 18.8283 23.5312 18.1252 23.5312C17.4885 23.5312 16.9924 23.332 16.6252 22.9062C16.2619 22.4883 16.0627 21.9102 16.0627 21.1875V17.9688C16.0627 17.3125 16.2541 16.793 16.6564 16.375C17.0588 15.957 17.5861 15.7188 18.2189 15.7188ZM6.34395 15.9062H7.65645C7.73848 15.9062 7.8127 15.9805 7.8127 16.0625V21.5312C7.8127 21.7109 7.82441 21.7852 7.84395 21.8125C7.85176 21.8242 7.88691 21.875 8.0002 21.875C8.03926 21.875 8.1252 21.8594 8.28145 21.75C8.41035 21.6641 8.52363 21.5586 8.6252 21.4375V16.0625C8.6252 15.9805 8.69941 15.9062 8.78145 15.9062H10.1252C10.2072 15.9062 10.2502 15.9805 10.2502 16.0625V23.1875C10.2502 23.2695 10.2072 23.3438 10.1252 23.3438H8.78145C8.69941 23.3438 8.6252 23.2695 8.6252 23.1875V22.7812C8.44941 22.9531 8.27754 23.082 8.09395 23.1875C7.80488 23.3516 7.53145 23.4375 7.2502 23.4375C6.89473 23.4375 6.62129 23.3164 6.4377 23.0625C6.26191 22.8242 6.1877 22.4844 6.1877 22.0312V16.0625C6.1877 15.9805 6.26191 15.9062 6.34395 15.9062ZM13.2502 17.25C13.1994 17.2578 13.1486 17.2852 13.0939 17.3125C13.0314 17.3438 12.9689 17.4023 12.9064 17.4688V21.7812C12.9846 21.8633 13.051 21.9336 13.1252 21.9688C13.2072 22.0078 13.2854 22.0312 13.3752 22.0312C13.5432 22.0312 13.6096 21.9609 13.6252 21.9375C13.6643 21.8867 13.6877 21.7695 13.6877 21.5312V17.8438C13.6877 17.6406 13.6682 17.4727 13.5939 17.375C13.5197 17.2773 13.4025 17.2227 13.2502 17.25ZM18.1877 17.2812C18.0275 17.2812 17.9104 17.3164 17.8439 17.4062C17.7971 17.4727 17.7502 17.6367 17.7502 17.9688V18.5312H18.5939V17.9688C18.5939 17.6406 18.551 17.4805 18.5002 17.4062C18.4377 17.3203 18.34 17.2812 18.1877 17.2812Z" fill="url(#paint0_linear_177_2245)"/>
<defs>
<linearGradient id="paint0_linear_177_2245" x1="24.743" y1="0.0312507" x2="-3.44001" y2="21.1914" gradientUnits="userSpaceOnUse">
<stop offset="0.25" stop-color="#3B768F"/>
<stop offset="0.536458" stop-color="#3EC6FF"/>
<stop offset="0.817708" stop-color="#3B768F"/>
</linearGradient>
</defs>
</svg>
